<svg width="733" height="826" viewBox="0 0 733 826" fill="none" xmlns="http://www.w3.org/2000/svg">
    <mask id="mask0_119_102" style="mask-type:alpha" maskUnits="userSpaceOnUse" x="0" y="0"
        width="733" height="826">
        <path
            d="M67.3362 352.127L72.2258 350.496L77.1154 352.127H91.2409L96.6738 350.496L99.3902 354.303L103.737 357.566H118.949L120.578 359.197V363.548L118.949 367.899L122.208 370.618H126.011V374.969L128.185 378.232L129.271 380.407L135.247 384.214L140.137 388.021L143.94 390.197L147.2 394.547L149.373 395.635V396.723L149.916 397.267M149.916 397.267H156.436L160.782 394.004V390.74H158.609L156.436 388.565V386.39L158.609 384.214L164.585 383.127L166.215 379.864V366.811L162.412 364.092V353.759L164.585 346.145L167.301 345.057L171.104 341.794L173.277 343.97L172.191 346.145L176.537 348.864H183.6L187.403 351.04L191.206 355.39L187.403 356.478V368.443L181.427 369.53V373.881H191.749V369.53L194.466 368.443L195.552 365.724V362.46H206.418L209.678 365.724L214.567 366.267V357.566H216.741L218.37 353.759L220 351.04L214.567 350.496L213.481 346.145L214.567 342.882V340.163L218.37 338.531H228.693V329.83H225.976L222.717 332.005H211.851L208.591 329.83L206.418 327.654L205.331 323.304L206.418 318.409L208.591 317.321L211.851 314.058L214.567 311.883L216.741 310.251L220 307.532L222.717 306.444L225.976 303.181H230.323L234.669 299.918H237.385L240.102 296.655H241.732L247.165 292.304V288.497M149.916 397.267L153.719 403.793L152.089 407.6H149.916L146.656 409.231L145.026 411.407V427.178M139.05 197.131H134.161L129.271 198.763L122.752 205.289V208.552L120.578 214.534L117.319 219.429L115.146 225.411L112.429 228.674L108.083 230.85L103.193 234.657L98.8469 237.376L96.6738 242.271L93.4141 249.884H91.7842L89.0677 254.779L86.8946 261.305H70.0527L66.2496 265.112H60.2735L58.6436 261.305L54.2973 256.411L50.4943 254.779L47.2345 258.586L43.4315 261.305L40.9207 266.744L39.6285 270.007L34.7389 273.814L31.4792 279.796L27.6761 283.059V291.217L29.306 293.936L33.6523 296.655H39.6285L43.4315 298.287V317.321L47.2345 322.216L54.2973 323.847H57.0137V333.093L63.5332 340.707V343.426L66.2496 348.864V356.478L63.5332 361.373L60.2735 363.004H54.2973V358.654H52.6674L50.4943 361.373H47.2345L42.3449 363.004L39.6285 365.18H34.7389L31.4792 364.636L28.6394 361.373H8.98928L7.57447 364.636V370.074L5.78074 374.604L0.511719 376.6V380.951L2.68487 386.934L5.9446 389.653L10.2909 394.004L14.0939 398.354L18.9835 400.53H22.2433L27.6761 403.793H31.4792L36.912 400.53L42.3449 398.354H47.2345L48.8644 396.723L52.6674 395.635H54.2973L52.6674 398.354L50.4943 400.53L47.2345 407.056L42.3449 410.319L39.6285 411.95L33.6523 412.494H29.306L26.0463 414.67H22.2433L18.9835 411.95L15.7238 414.67V419.564L16.8104 422.284L20.6134 427.178L22.2433 429.354L26.0463 430.985L27.6761 434.792L31.4792 436.695L36.912 442.95L39.6285 445.125L43.4315 447.3L47.2345 451.107L50.4943 452.739L54.2973 456.002L57.0137 458.177L60.2735 459.809H66.2496L72.7691 458.177L76.5721 456.002L81.4617 452.739L86.8946 451.107L91.7842 448.388L96.1305 445.125L98.3036 440.23V434.792L96.1305 430.985V427.178H99.9335V420.652H104.823L103.193 422.284V427.178H107.54L106.453 429.354V434.792L112.429 436.695M139.05 197.131V187.342L145.026 179.728L153.719 172.114L156.979 168.851V157.431L153.719 149.817L156.979 146.01L160.782 141.115L166.215 137.308L172.734 134.589L175.994 131.326M139.05 197.131L139.594 197.675L144.483 200.938H151.003M175.994 131.326L172.734 128.063M175.994 131.326L175.451 130.782M172.734 128.063H162.955L159.152 126.431V118.817H153.719V116.098L150.459 111.204L145.026 106.853L141.767 102.502L145.026 99.7829V91.6252H141.767V85.6429L145.026 83.4675L147.2 79.6606H139.05V74.766H141.767V69.8714H136.334V62.8014H141.767V59.4925H145.026L147.2 54.7361H153.719L154.262 49.9797L151.003 45.8178H147.2V42.2505L139.594 39.8723L136.334 33.9268H129.271L122.752 29.1704L124.691 21.4413L129.271 17.2794H132.42L136.334 10.7394V7.17207H151.003V3.01021H166.215L171.104 1.22656H175.451L179.797 3.01021H181.97L187.946 1.22656H189.576L190.663 7.17207L195.009 10.7394L199.355 17.2794H203.702L208.048 21.4413L214.567 25.6031L218.37 29.1704L220.544 33.9268L224.347 36.305L230.866 38.0887L233.582 42.2505V45.8178H246.078L252.054 42.2505L260.747 36.305L265.093 32.1432L268.353 29.1704H275.959L278.675 33.9268L283.022 38.0887L287.368 39.8723H292.258V42.2505L296.604 45.8178V49.9797L294.974 57.1143L294.431 62.8014L292.258 64.9767L291.714 66.6271L285.814 67.2217V69.8714L284.625 71.3835H280.849V76.9414L278.675 83.4675H267.266L268.353 88.0309V91.6252L267.266 95.4321V99.7829L273.243 102.502H278.675V120.993L275.959 126.431H273.243L269.983 128.063H262.92V120.993L258.574 126.431L256.401 124.256L251.27 121.174M172.734 128.063L175.451 130.782M265.093 161.237L264.007 159.606L261.29 157.974L262.377 155.799L264.007 151.448L262.377 149.817L260.747 147.641L261.29 145.466L262.377 142.203L261.29 140.027L257.487 136.221L256.401 132.957V128.063L250.968 120.993L251.27 121.174M265.093 161.237H266.723L271.069 156.887L272.156 158.518L273.786 162.869L276.502 165.588L279.762 169.395L283.022 172.114H292.258L294.431 173.202L296.604 177.009L298.777 178.641L301.494 182.991L310.186 186.254L313.989 188.974L316.706 191.693L317.249 193.868L313.989 197.131L310.729 199.307L309.1 201.482L305.84 204.745L304.21 207.464V211.271L303.123 214.534L301.494 217.254V222.148L300.407 224.867L296.604 228.674V234.657M265.093 161.237L266.18 162.325M296.604 234.657L301.494 237.92L305.84 239.551H310.186L313.989 241.727L318.336 246.621L324.312 249.884L328.658 253.691L331.374 255.867L335.177 258.042L338.437 259.13L342.783 260.761H349.303L352.563 265.656H362.342L363.972 268.375V272.726H375.381L377.554 276.533L379.184 274.357V272.726H384.617L386.79 274.357H390.865M296.604 234.657L294.974 235.201L291.714 233.569H287.368L283.022 231.937H280.849L277.589 230.306L273.786 226.499L270.526 225.955L265.636 222.692L264.007 219.973L265.636 216.166L262.92 214.534L259.66 211.815L256.944 209.64L254.771 206.921L253.141 201.482L248.251 200.394V206.921L246.078 209.64H240.645L237.929 206.921L239.015 200.394V198.763L240.645 194.956V192.237L237.929 190.061L234.669 188.43M498.707 297.743L495.448 301.55H493.274V302.637H482.409L480.235 303.725L475.889 302.637L472.629 301.55L471 297.743H468.283L466.11 301.55H463.394L458.504 297.743H455.787L450.898 296.111L446.008 295.024L444.922 296.111L442.749 297.743L438.402 296.111V291.76L435.686 289.585L433.513 291.76L430.253 292.848H425.363V291.76L421.017 289.585L419.93 287.41H417.214L411.781 284.691L410.151 280.884V277.077H407.978L402.545 274.357L400.372 272.726H397.656L394.939 274.357H390.865M498.707 297.743L499.813 292.848V287.41L496.768 284.147L495.448 279.252M498.707 297.743L500.691 296.655L501.967 298.724L503.597 301.55L501.967 304.813M495.448 279.252L496.768 276.533V270.007L498.707 266.744V264.568L499.813 259.674H502.51L505.227 258.042L509.573 256.411H517.179V262.937L519.352 264.568L518.266 268.919V277.077L517.179 279.252M495.448 279.252L499.813 282.637H506.872L509.573 280.781L515.549 280.162L517.179 279.252M517.179 279.252L518.266 284.147L521.525 287.41V289.585H532.934L536.737 292.848M536.737 292.848H548.69M536.737 292.848H542.17M548.69 292.848L552.493 289.585H556.296L560.642 291.76H588.35L592.696 289.585H598.672M548.69 292.848H542.17M598.672 289.585V272.726H590.523L588.35 268.919L590.523 262.937L594.326 264.568H598.672L601.932 262.937H605.192L612.255 261.849L615.514 258.042V253.691H618.231L622.577 248.797V246.621H626.38V243.902L631.813 240.639L633.986 239.007H638.332L643.765 236.832L644.852 235.744L649.742 234.657L653.001 231.394L657.891 228.131V221.604L661.694 220.517L668.213 221.604L670.386 224.324H674.189L677.449 225.955L681.795 227.043L684.512 224.324L688.315 223.236L691.031 220.517L693.204 219.429L694.291 218.341H702.984L704.07 219.429H706.243L707.33 220.517L706.243 224.324L707.33 225.955L711.133 229.218L712.22 231.394L713.306 234.657V236.832L711.676 240.095L711.133 241.727L715.479 240.095L717.109 240.639L719.282 242.814L721.456 243.902L721.999 247.165H725.802L727.975 246.621L731.235 248.797L732.321 251.516V259.13L728.518 261.849L726.345 262.937L723.085 265.656L721.456 268.375L721.999 272.726L723.085 275.445L726.345 278.164V283.603H724.172L721.456 280.884L719.282 279.796L717.109 278.164L714.393 277.077L709.503 278.164H705.157L700.267 279.796L691.575 288.497L687.228 292.304L681.795 294.48L677.449 297.199L676.363 300.462L674.733 303.181L675.819 306.444L677.449 310.795L679.079 313.514L676.363 317.321L673.646 318.953V322.76L671.473 323.847L669.3 326.023L667.67 328.742L666.04 329.286L664.41 330.51M598.672 289.585L603.562 286.866H609.538L612.798 284.691H618.774L623.664 286.866H638.876L639.962 285.778L644.309 284.691L645.938 280.34L648.112 278.164L649.198 274.357L655.174 270.007H659.521L662.78 265.656H666.583L667.67 264.024L674.189 262.937L676.906 261.305H681.795L685.599 260.217L687.228 256.954H694.834L697.551 258.586L696.464 261.305L694.834 265.656V270.007L696.464 274.357V278.164H692.118L687.228 279.252L685.599 280.34L683.969 281.971L681.795 283.059L679.622 286.866M633.986 371.162H636.703L641.049 371.706H644.852L647.025 372.794H653.001L654.631 368.987V365.724L656.804 361.917L657.891 357.022L659.521 354.303L661.151 352.127L662.78 350.496L663.867 348.32L666.04 345.601L667.127 341.25V340.163L664.41 337.987L662.78 336.356L663.867 330.917L664.41 330.51M633.986 371.162L632.899 372.794V381.495L633.986 386.39V395.091L632.899 396.723L629.64 397.81L627.467 400.53L626.38 402.705V410.863L627.467 414.126V419.02L622.577 423.371L621.49 426.09L618.774 424.459L616.601 423.371H614.428L613.884 425.003H612.255V419.02L611.711 413.582H611.168V407.6L609.538 404.337L607.908 400.53L606.822 396.723V388.565L605.735 386.934L604.105 381.495L603.019 379.864M633.986 371.162L631.813 370.074V367.899H623.664V359.741M603.019 379.864H599.216M603.019 379.864H602.475M599.216 379.864L597.042 381.495L595.413 384.214V388.565H593.239L592.696 392.916V397.81H586.177L585.09 396.179L582.374 392.916L581.287 392.372L580.744 388.565L577.484 385.302L576.941 380.951V374.969L578.571 372.794L582.374 370.074L584.547 368.987L587.807 366.811L589.98 366.267L595.413 363.548V361.917L597.042 359.741L600.302 358.11L601.932 354.303L603.019 351.04V347.777L604.105 346.145H606.822L609.538 345.601V343.97L606.822 342.338L606.399 342.217M599.216 379.864H602.475M538.911 310.251L541.627 314.058L542.714 316.777V321.128L543.8 323.304L545.973 324.174M538.911 310.251H536.737M538.911 310.251H538.367M536.737 310.251L535.651 315.146H534.564L531.305 314.058L527.502 311.339L524.242 308.62M536.737 310.251H538.367M514.907 304.813H509.03L503.597 310.251L499.813 314.058V316.777L503.597 320.04L505.77 321.128L507.943 326.023L511.746 329.83L515.549 329.286L518.809 332.005L521.525 335.268L520.982 337.444H515.549L510.116 338.531L506.857 340.707V342.882L498.707 348.32V352.671L499.813 355.39L502.51 358.11L504.683 359.197L506.857 360.829H514.463V366.811L515.549 369.53V371.706L512.833 373.881L510.116 375.513V378.232L511.746 382.039L512.833 383.127L515.549 384.758V389.653L520.982 395.091L518.809 400.53V404.337L520.982 408.144L521.525 413.582V417.389L523.699 422.284V424.459L519.896 425.547L523.699 429.354V438.599L519.896 436.423H512.833V429.354L510.116 436.423H505.77L502.51 433.704L499.813 429.354V425.547L502.51 422.284L498.707 420.108L497.077 417.389L495.448 413.582L494.904 415.214L495.448 417.389L497.621 420.652L498.164 422.827V425.003L496.534 427.722L494.361 430.441L490.015 432.617L486.212 434.792M486.212 434.792L482.409 435.88M486.212 434.792L484.582 435.258M482.409 435.88L478.062 436.423L473.716 438.599L471.543 440.774V442.95L468.283 445.669V452.739L469.913 456.002L471.543 460.897L469.913 465.247L467.197 466.335V470.686L461.764 472.861L459.591 475.58L457.417 479.931L455.787 481.563L454.701 479.931L452.528 479.387L451.441 477.756L450.355 477.212L451.441 482.107V483.738H448.181L444.922 484.826L440.575 484.282H438.402L434.599 482.107H430.253L428.08 484.282L425.907 487.001V489.72L424.82 491.352L423.733 495.703L420.474 498.966L417.757 502.773M482.409 435.88L484.582 435.258M417.757 502.773L415.041 505.492L411.781 510.387L408.521 514.737L402.002 521.263L398.199 523.439L396.026 525.614H393.853L391.136 528.333L386.79 531.053L385.16 533.772L381.9 537.579L379.184 539.21L377.554 542.474L373.208 546.824L370.491 548.456L366.145 550.631L357.996 553.35L353.649 556.07V569.666L352.563 571.297L348.76 573.473L344.957 575.104L340.61 576.736H324.312V582.718L322.682 585.437V588.157L318.879 591.42L316.706 592.507H315.076L313.446 590.332H308.556L304.753 592.507L302.037 596.314L298.777 601.209V602.84L296.061 607.191V620.787L298.777 626.77V631.12L297.691 633.84L298.777 639.822L302.037 647.436V650.699M417.757 502.773L411.781 502.229L408.521 505.492H404.718V510.93H396.026L391.136 510.387L388.963 507.667L386.79 505.492L385.16 502.773H379.184L377.554 505.492V512.562H373.208V522.351H366.145V523.983L357.996 524.527V522.351H355.822V519.088H353.649L352.563 521.263V532.14L348.76 531.053L344.957 533.772H342.24L337.351 535.947V537.579L331.918 538.123M302.037 650.699L298.777 653.418L293.887 652.33L291.714 655.05L288.998 658.313H277.046L274.329 662.664L269.983 663.751H263.463L260.204 665.383L258.574 669.734L256.401 672.453L253.684 672.997H250.968L248.251 670.821M302.037 650.699V661.576L300.407 667.014V672.453L298.777 675.716L297.691 680.61L296.061 682.242L293.887 684.961L291.714 686.593L288.998 691.487H285.738V695.294L287.911 696.926V706.171L285.738 707.803L288.998 710.522V733.363L287.911 734.451H279.219L277.046 736.083L275.416 738.258V744.784L272.156 745.872L268.896 750.767L267.266 754.03L268.896 758.38L272.156 759.468H279.219L280.305 763.275L277.046 761.643H265.637L260.204 763.275L258.574 764.906L254.771 766.538H252.054L248.251 771.433V779.59L246.078 782.853L241.732 786.116L237.385 788.836L234.669 789.923L231.953 791.555H225.433L221.087 787.204M221.087 787.204L219.457 786.116L217.284 783.941L215.654 781.766L213.481 778.503H211.851L210.221 773.064L209.135 771.433L205.331 766.538L203.702 764.906V759.468L202.072 755.661V754.03H203.702L202.072 745.872V743.696L199.899 741.521L198.269 736.083L195.009 730.644V729.013L192.836 723.03L190.119 721.399L188.49 716.504V713.241L183.6 705.083L181.97 701.82L179.797 696.926H178.167L174.364 691.487L172.734 687.68L170.018 682.786L167.301 678.435L165.671 675.172L164.585 670.821M221.087 787.204L224.347 782.853V778.503L223.26 775.783V773.064L221.63 769.257L223.803 764.906L224.347 761.643L228.15 760.012L229.236 755.661H225.433L224.347 750.767V738.258L223.26 734.451H221.63L218.37 736.083L215.654 734.451L213.481 730.644V726.293L211.851 721.399V716.504L210.221 713.241L206.418 712.153L205.331 707.803H202.072L199.899 703.452L203.702 700.733L202.072 696.926M164.585 670.821L162.955 667.014H161.325V658.313L160.239 653.418V649.067L158.609 645.26V643.629L154.806 640.366V632.208L151.546 631.12V626.226L149.916 624.05L148.829 622.419L146.656 619.7L144.483 618.612L143.865 617.498M164.585 670.821L168.931 673.54L172.734 675.716L174.907 679.523L178.167 682.242L181.97 686.593L186.316 688.768L188.49 691.487L192.836 693.119L196.639 695.294H199.899L202.072 696.926M136.334 597.946V601.753H138.507V603.384L140.137 607.735L141.767 609.91V613.717L143.865 617.498M136.334 597.946L134.161 594.139L130.358 589.788V583.262L128.185 581.087L126.555 576.736V570.753L124.925 566.403V563.14L123.295 556.613V553.35L121.665 549.543V545.737L119.492 541.386V538.123L117.319 534.316V531.053L114.602 525.07V518L111.886 515.281V494.071L110.256 491.352L107.54 486.457V477.756M136.334 597.946L137.964 597.402L140.137 594.683H148.286M107.54 477.756L110.256 471.23L111.886 463.616L114.602 459.809L111.886 456.002L110.256 451.107L107.54 448.388V440.23L110.256 438.055L112.429 436.695M107.54 477.756H111.886L112.429 473.405L115.689 472.317L119.492 475.037H125.468V466.335H127.098V461.984L130.358 463.616H134.704L137.42 461.984V451.107L130.358 448.388L131.444 447.3H134.704L140.137 442.95L142.31 440.23L145.57 438.055M112.429 436.695L114.602 435.336M202.072 696.926H206.418L210.221 700.733H213.481L215.654 696.926L219.457 695.294H228.15L230.323 692.575H235.212L235.756 689.856V686.593L230.323 684.961V682.242L231.953 679.523V673.54H235.212L236.842 669.734L238.472 668.102H241.732L244.992 668.646L248.251 670.821M248.251 670.821L250.968 668.102L254.771 667.014V662.664L258.574 658.313V656.681H253.684V652.33L252.054 649.067H248.251L246.078 647.436L244.992 645.26L243.905 641.997H241.732L239.559 641.453L236.842 641.997L230.323 645.26L228.15 643.629L225.433 641.453L224.347 642.541L221.63 645.804H218.37L217.284 643.629V640.366L215.654 638.19L216.197 636.206L218.37 634.636L220.544 634.927L221.008 636.801L221.63 638.19H225.433H227.606V631.664L224.347 630.577H220.544L216.197 631.664L215.208 634.636M215.111 634.927L215.208 634.636M231.409 523.983L231.953 526.158V535.947L231.409 537.579L230.323 542.474L233.582 545.193L231.953 546.824V548.456L228.15 550.631L227.606 553.35L228.15 556.07V565.315L227.606 571.297H225.433V575.104H227.606L231.409 576.736V581.63L230.323 585.437L227.606 586.525H221.63L220.544 587.613V595.77L218.37 599.033V602.84L220.544 605.56L221.63 609.367L218.37 610.998H211.851L212.394 614.261L214.024 616.437L212.394 618.612L211.308 619.7V622.963L212.394 624.594L214.024 627.857H215.111V631.12L215.208 634.636M231.409 523.983H228.15L227.606 522.351L226.52 521.263L224.347 522.351L221.63 526.158L218.37 528.333H215.111L214.024 531.053V535.947H211.308L209.678 540.298H202.615L200.985 545.193V549.543H198.269L193.379 548.456L191.206 549.543L187.946 548.456L184.143 546.824H182.513L180.883 550.631L182.513 553.35V559.333H173.277L171.648 562.596H168.931L166.758 560.964L163.498 562.596L162.412 566.403L158.065 567.49V571.297L154.806 570.21H151.546L148.829 571.297V575.104L151.546 578.911H154.806V585.437L152.633 587.613L148.286 594.683M231.409 523.983L231.953 520.176L234.669 519.088L236.842 516.913L238.472 514.737L241.189 512.562V510.93L238.472 507.667L236.842 505.492L240.102 498.966L241.189 497.878L244.448 498.966L246.621 499.51L249.338 497.878V495.159L250.968 491.896L252.054 489.177V483.194L256.401 484.282H262.92L265.093 487.001L266.723 490.264H269.983L271.069 489.177H275.416L275.959 490.808L279.762 491.896L282.478 492.984H286.281V490.264H288.998L290.084 491.896L291.714 494.071L292.801 497.334L291.714 497.878V505.492L292.801 508.211V512.562L295.517 514.737H298.777M148.286 594.683L148.829 597.402V613.717L148.286 614.261L146.113 614.805L143.865 617.498M298.777 514.737L301.222 515.825M298.777 514.737L300.95 515.704M331.918 538.123L329.201 537.579H320.509L318.879 535.947L317.249 532.14L315.619 528.877H312.903L310.729 524.527V521.263L309.643 520.176L306.383 518L303.667 516.913L301.222 515.825M331.918 538.123V530.509L334.091 526.702L338.98 523.983L342.24 519.632L346.043 515.281L348.216 512.018V498.966L346.043 493.527V490.808L342.24 485.914L340.61 482.65V479.931L344.413 477.212L350.39 479.931L354.736 482.65L360.712 485.914L364.515 482.65L362.885 477.212H354.736V453.827H356.909L360.712 448.932H374.294C373.389 448.751 372.121 448.171 374.294 447.3C376.902 444.255 378.641 441.318 379.184 440.23L380.27 436.967L382.444 433.704L384.073 430.441V422.284L386.79 421.196L388.42 419.564L392.766 414.67L395.482 413.893M145.57 438.055H147.2M145.57 438.055H140.137L134.704 435.336L135.791 430.441L137.42 429.354L142.31 427.178H145.026M300.95 515.704V506.58L303.667 504.948V498.966L304.753 495.159H306.926L308.556 497.878H313.446V491.352L311.273 489.177L308.556 485.914L304.753 483.194V479.931L308.013 477.756V475.037H304.753V471.23H309.643V466.335L304.753 463.616L306.926 459.809V458.721L306.383 456.002L303.667 451.107L309.643 445.125L308.871 443.58M300.95 515.704L301.222 515.825M363.972 373.881V375.513L360.169 376.6H344.413L341.697 373.881H336.264L335.177 380.951V384.758H341.697L343.87 386.39L345.5 387.477L347.13 388.021L349.846 390.197V393.46L347.13 395.635L341.697 401.074H338.437V407.6L335.177 408.687L332.461 410.863L331.374 413.582H325.942L323.768 414.67L322.138 417.933V420.108L319.965 423.915H317.249L315.619 426.09V431.529L313.446 433.704V441.862L309.1 443.493L308.871 443.58M363.972 373.881H374.294L377.554 368.443L379.184 366.267M363.972 373.881V352.671L360.169 350.496L355.279 351.04H352.563L349.846 348.32L347.13 346.145L342.783 345.057L338.437 342.882L335.177 340.163L332.461 338.531H325.942L322.138 342.882L319.965 345.057H315.619L314.532 342.882L315.619 338.531H309.1L305.297 340.163H302.037V333.637H293.887L292.801 335.268L290.084 336.9L287.368 340.163H280.305L276.502 336.9H269.44L267.266 335.812V329.83H264.55L261.29 332.005L258.03 333.637V340.163L261.29 345.057V348.32L262.92 352.671H264.55L267.266 357.566V362.46H264.55C263.463 363.548 260.638 365.071 258.03 362.46C255.423 359.85 252.96 358.11 252.054 357.566L249.881 356.478V348.32L248.251 346.145V342.882H249.881L252.054 340.163V335.268L249.881 333.637V329.83L252.054 327.654H256.401L258.03 323.847H261.29L262.92 320.04L264.55 317.321L267.266 311.883V307.532L269.983 306.444V299.918L264.55 293.392L259.117 292.304H256.401L249.881 289.585L247.165 288.497M379.184 366.267H381.9L384.073 368.443V372.25L386.79 375.513L391.136 380.951V383.127H394.396V388.021L395.482 391.828L398.199 395.635L402.002 398.354H404.175V403.793L399.829 404.88L398.199 405.968L395.482 407.6V413.893M379.184 366.267L380.27 362.46L381.9 359.741L380.27 357.022V355.39H382.987L384.073 351.04L381.9 348.32L378.641 346.145L377.554 341.794V339.075L380.27 335.268L382.987 333.093L386.79 331.461L392.223 328.198L394.939 326.023L397.656 323.304H400.372L403.632 324.391L409.065 323.304L411.781 321.128L407.978 317.321L404.175 316.777L400.372 314.058L397.656 311.339L397.112 309.164L396.026 306.988H399.285V304.269L397.112 301.55L393.853 299.918L397.656 296.111H403.632V290.673L399.285 287.41L396.026 284.691L393.853 280.884L391.136 276.533L390.865 274.357M247.165 288.497L241.732 286.866H239.015L234.126 290.129L229.236 292.848L226.52 291.217L229.236 286.866L233.039 283.603L230.866 280.34V276.533L226.52 272.182V267.287L223.26 263.481M464.48 419.564L461.764 417.389L457.961 415.757L454.158 414.67L451.984 412.494L447.638 410.863L446.552 413.582V422.284L444.378 425.547L438.402 423.915L436.229 422.284H429.166C428.297 422.284 427.718 423.371 427.536 423.915H424.277L421.017 421.196L424.277 418.477V413.582H419.93L411.781 414.67L406.348 417.389L401.459 415.757L396.569 413.582L395.482 413.893M464.48 419.564L468.826 422.284L472.086 423.915L474.803 425.547L476.432 428.266L478.062 430.441H481.322L482.409 431.529L483.495 433.704L484.582 434.792V435.258M464.48 419.564L466.653 417.389V413.582L463.394 409.231L461.764 407.6L459.047 405.968L457.961 404.337L456.874 403.249V401.617L457.961 399.986V398.354H451.984L448.725 396.723L447.638 395.635L444.378 394.004V385.302L446.552 382.583H447.638L449.811 384.214H454.158L455.244 382.583L457.961 379.864H463.394L464.48 377.144L466.653 374.425L471 371.706L473.173 374.425L476.432 376.057L478.606 375.513V368.987H483.495L484.582 366.267H486.212L488.385 363.548V361.373L490.015 360.285V357.022L491.645 354.303H493.818V346.145L491.101 341.25V334.724M641.049 805.695L640.965 805.842M640.965 805.842L638.876 809.502L637.789 812.765L638.876 817.66V821.466L642.679 823.098V825.273H644.852L645.938 823.098H647.568V817.66L644.852 814.94V811.677L643.765 810.59L642.679 808.414L640.965 805.842ZM151.003 200.938L154.262 205.289L155.892 211.271V215.622L158.065 218.341H161.868V215.622L165.128 218.341L171.104 221.061H178.167V224.324L179.797 229.218L181.97 231.937V236.832L185.23 241.183L187.946 245.534L190.663 249.341L192.836 252.06V260.217L196.639 263.481L198.269 257.498L202.615 255.867V252.06L208.048 257.498L210.221 255.867L211.851 252.06L212.938 251.516L215.111 255.867V263.481L218.37 267.287L223.26 263.481M151.003 200.938L155.892 202.026L158.065 200.938H164.042L167.301 202.57L170.561 203.114L172.191 208.008L173.821 210.727L175.451 208.008L179.254 206.377H192.836L195.552 205.289L197.725 202.57V198.763L200.442 196.044H203.702L208.048 194.412L211.308 188.974L214.567 188.43L215.111 185.711L212.394 180.272L211.851 175.921L214.024 173.746M223.26 263.481L225.976 261.849H228.15L230.323 259.674L231.409 255.323V251.516L229.236 245.534L226.52 242.814V236.832C226.52 235.962 226.158 235.382 225.976 235.201L223.803 232.481L221.087 230.306C221.521 229.436 221.992 227.405 222.173 226.499V217.254L220 215.622M219.833 215.622V213.447L220 210.727L220.544 208.008L223.26 204.745L224.347 200.938L225.976 198.763L229.236 196.044C229.417 195.5 229.997 194.195 230.866 193.324L233.582 190.605V187.886L229.236 186.798H225.976L223.803 184.623L222.173 182.447L221.087 178.097L218.37 175.921L214.024 173.746M214.024 173.746L210.221 171.027V166.132L206.418 160.694H196.639V153.08L192.836 147.641V144.922L187.946 140.027H185.23V132.957H187.946L190.663 128.063L189.033 124.256H185.23L181.97 128.063H178.167L175.451 130.782M145.026 427.178H149.916L152.633 425.003V429.354L156.436 433.704L161.868 434.792L168.388 436.695L171.104 440.23H174.364L180.883 442.95H191.206L193.922 441.862L195.552 447.3L198.812 450.02L200.985 448.388H202.615L209.678 447.3L211.308 441.862L214.024 438.055L215.111 434.792L221.63 433.704H231.409L231.953 436.695L228.15 440.23L236.842 442.95H241.189L246.621 441.862L249.338 438.055L252.054 436.695H256.401L258.03 438.055H260.747L266.723 436.695L273.243 434.792L275.959 433.704H279.762L280.849 433.16L283.565 436.423H286.281L288.998 435.336L290.084 436.695L295.517 438.055V435.336H301.494L304.753 439.687L308.013 441.862L308.871 443.58M189.576 124.256V113.379C190.3 113.742 191.967 114.249 192.836 113.379C193.705 112.509 198.269 108.484 195.009 111.204C196.096 110.116 198.486 107.832 199.355 107.397L202.615 105.765L203.158 103.59H205.875C206.418 103.59 209.678 102.502 210.221 103.59C210.656 104.46 212.575 106.49 213.481 107.397C215.111 107.941 217.284 109.028 218.37 109.572M218.37 109.572C219.457 110.116 222.173 112.835 223.26 113.379C225.976 113.923 228.15 113.923 229.236 113.923C230.323 113.923 230.866 113.379 231.953 113.379C233.039 113.379 234.669 111.204 235.212 111.204C235.647 111.204 237.204 111.566 237.929 111.747L238.472 112.291C240.102 113.923 240.645 115.554 241.189 116.098C241.732 116.642 242.275 118.817 241.732 119.361C242.818 120.993 244.448 121.537 244.992 121.537C245.426 121.537 246.984 121.174 247.708 120.993L250.424 119.905L251.27 121.174M218.37 109.572V107.397L211.851 99.7829L208.048 97.5437H203.702L206.418 91.6252L203.702 89.8146L200.442 88.0309L197.725 83.4675H195.009V79.6606L190.663 76.9414H187.946L187.119 73.1672V66.6271H199.604L206.739 63.0598L209.712 61.2761H218.035V57.7088L219.819 52.9524H223.386L224.575 49.9797V48.7906L223.386 49.9797L219.819 42.8451L220.413 41.656H223.386L228.143 42.8451L232.304 45.2233H233.494M251.511 121.537L251.27 121.174M383.53 355.39H393.309L395.482 353.215L398.199 355.39L401.459 357.566L405.805 359.197L407.435 363.004H411.238L414.498 357.566L416.671 355.39L418.844 360.285H421.56L423.19 359.197L426.45 357.566H434.056L437.859 355.39V348.864H444.378L448.725 352.127L450.355 355.39L453.071 357.566L455.787 361.373H457.417L459.591 359.197V357.566L461.22 353.215L465.567 354.303H468.826C471 354.303 471.905 352.853 472.086 352.127V343.97L475.889 341.25L481.322 336.9L482.952 334.724H491.101M491.101 334.724V329.83L495.991 328.198L498.707 326.023L497.621 323.304L493.818 320.584L492.731 319.497L491.101 317.321V315.146L493.818 313.514L495.991 311.883L499.794 309.164L501.967 303.725M514.463 304.813L517.722 305.9H519.896V302.637H522.612L524.242 304.813V309.164M234.4 188.43L235.212 185.167L236.842 184.623L237.929 182.991L236.842 178.641V175.377L238.472 170.483L241.189 166.676L244.992 163.957L249.338 162.869L252.054 161.781L255.314 162.869L259.117 164.501L262.92 163.957M262.92 163.957L265.636 166.676H268.353V164.501L266.18 162.325M262.92 163.957L264.007 161.781L266.18 162.325M538.367 310.251L539.997 308.076H542.17V302.094L544.344 299.918V296.655L542.17 293.936V292.848M545.973 324.391V324.174M606.399 342.217L603.019 341.25L600.302 337.444H594.326C594.326 337.262 594.109 337.009 593.239 337.444C592.37 337.879 589.255 338.713 587.807 339.075H582.374L579.657 336.356H574.224L570.965 337.444H567.705L563.359 338.531H554.666L551.406 336.356H549.233L544.887 335.268L542.714 334.181L541.627 330.917L544.344 328.198V326.023L546.517 324.391L545.973 324.174M606.399 342.217L607.365 341.25C608.452 340.525 611.603 338.64 615.514 336.9C619.426 335.159 618.231 335.087 617.144 335.268V332.005H615.514L613.884 329.286L612.255 325.479L607.365 322.216C606.46 321.672 604.214 320.584 602.475 320.584V316.234C603.2 315.508 604.974 313.841 606.278 312.97C607.582 312.1 605.735 312.608 604.649 312.97H592.153L588.893 315.146L587.263 318.409H584.004L582.374 320.584H579.114L576.398 318.409L572.051 316.234H568.248L563.902 315.146H553.579C552.276 315.146 550.501 315.871 549.776 316.234L547.603 318.409L545.973 320.584V324.174M601.389 356.478L604.649 359.741L607.365 366.267M607.365 366.267L606.278 370.074V373.881L604.649 376.6L602.475 379.864M607.365 366.267L609.538 364.092L615.514 362.46L617.144 359.741L620.947 358.654L623.664 359.741M623.664 359.741V355.934L626.923 352.127V346.145L629.097 343.426L631.813 337.987L632.899 336.9M632.899 336.9L635.073 332.549V329.83L631.813 328.198L632.899 323.847L636.703 321.128L638.876 318.409L639.962 316.777L643.222 318.409C645.83 317.104 649.017 312.064 650.285 309.707L653.001 305.357L655.174 301.55L659.521 298.831H660.607L662.78 296.655L667.67 292.304L672.016 289.585L676.906 286.866H679.622M632.899 336.9H638.876L642.135 332.549V328.198L644.309 326.567H648.112L653.001 328.198H655.174L657.891 326.567L660.607 325.479H662.78L664.41 326.567V330.51M664.41 330.917V330.51M679.622 286.866V295.567M616.058 668.646L618.774 660.488V653.962L623.12 647.98L625.294 650.699V663.751L623.12 668.646V694.75L616.058 689.312V706.171L608.452 700.733L611.168 694.75V689.312L613.884 684.417V674.084L616.058 668.646ZM608.452 719.224H611.168L612.798 724.118L613.884 729.013H608.452V719.224ZM603.019 700.733V703.996L604.649 704.54L605.735 703.996V701.82L605.192 700.733H603.019ZM643.222 684.961L644.309 686.593L647.025 684.961L646.482 682.786L644.852 681.698H643.222V684.961ZM654.631 651.786V654.506L655.718 656.137H657.347V652.33L655.718 651.786H654.631ZM616.058 760.556V765.994L617.687 767.082H620.947L622.034 764.906V760.556H616.058ZM622.034 783.941V787.748L626.923 789.38L629.097 787.748L626.923 783.941H622.034ZM637.789 778.503L641.049 777.415V783.941H637.789V778.503ZM634.529 787.748H638.876V796.993H636.703V798.081L635.616 799.169H631.27L630.183 796.993V792.099H634.529V787.748ZM115.689 784.485V789.38H118.949L121.122 787.748V786.116L118.949 784.485H115.689ZM131.444 739.89L132.531 738.802V737.714H135.791V740.977L134.161 742.065H131.444V739.89ZM132.531 719.767V722.487L134.161 723.574L135.247 723.03V719.767H132.531ZM108.083 696.926V700.733L109.169 701.276L111.886 700.733L111.343 697.47L109.169 696.382L108.083 696.926ZM115.689 702.364V705.627L117.319 706.715L118.405 705.627V702.908L115.689 702.364ZM110.799 707.259L110.256 709.434L108.083 712.697V716.504L111.343 717.048L112.972 716.504V708.347L111.343 707.259H110.799ZM104.28 721.399V723.574L107.54 724.118L106.739 721.399H104.28ZM105.91 726.837L106.739 729.013H109.169L108.083 726.837H105.91ZM94.5006 718.68L95.0439 724.118L97.7604 723.574L96.6738 718.68H94.5006Z"
            stroke="#423FD9" />
    </mask>
    <g mask="url(#mask0_119_102)">
        <rect x="-29.2412" y="-7.17969" width="761.062" height="891.543" fill="#423FD9"
            stroke="#423FD9" />
    </g>
    <path
        d="M222.58 185.784C224.161 185.784 225.515 185.221 226.642 184.094C227.768 182.969 228.33 181.616 228.33 180.034C228.33 178.453 227.768 177.099 226.642 175.972C225.515 174.847 224.161 174.284 222.58 174.284C220.999 174.284 219.646 174.847 218.521 175.972C217.394 177.099 216.83 178.453 216.83 180.034C216.83 181.616 217.394 182.969 218.521 184.094C219.646 185.221 220.999 185.784 222.58 185.784ZM222.58 214.534C214.865 207.97 209.104 201.872 205.296 196.241C201.485 190.611 199.58 185.401 199.58 180.609C199.58 173.422 201.893 167.696 206.517 163.431C211.14 159.167 216.495 157.034 222.58 157.034C228.665 157.034 234.02 159.167 238.643 163.431C243.268 167.696 245.58 173.422 245.58 180.609C245.58 185.401 243.676 190.611 239.867 196.241C236.057 201.872 230.295 207.97 222.58 214.534Z"
        fill="#FFE500" />
    <path
        d="M182.42 157.034C184.001 157.034 185.355 156.471 186.482 155.344C187.607 154.219 188.17 152.866 188.17 151.284C188.17 149.703 187.607 148.349 186.482 147.222C185.355 146.097 184.001 145.534 182.42 145.534C180.839 145.534 179.486 146.097 178.36 147.222C177.233 148.349 176.67 149.703 176.67 151.284C176.67 152.866 177.233 154.219 178.36 155.344C179.486 156.471 180.839 157.034 182.42 157.034ZM182.42 185.784C174.705 179.22 168.944 173.122 165.135 167.491C161.325 161.861 159.42 156.651 159.42 151.859C159.42 144.672 161.732 138.946 166.357 134.681C170.98 130.417 176.335 128.284 182.42 128.284C188.505 128.284 193.86 130.417 198.483 134.681C203.107 138.946 205.42 144.672 205.42 151.859C205.42 156.651 203.516 161.861 199.707 167.491C195.897 173.122 190.135 179.22 182.42 185.784Z"
        fill="#FFE500" />
    <path
        d="M211.08 234.534C212.661 234.534 214.015 233.971 215.142 232.844C216.268 231.719 216.83 230.366 216.83 228.784C216.83 227.203 216.268 225.849 215.142 224.722C214.015 223.597 212.661 223.034 211.08 223.034C209.499 223.034 208.146 223.597 207.021 224.722C205.894 225.849 205.33 227.203 205.33 228.784C205.33 230.366 205.894 231.719 207.021 232.844C208.146 233.971 209.499 234.534 211.08 234.534ZM211.08 263.284C203.365 256.72 197.604 250.622 193.796 244.991C189.985 239.361 188.08 234.151 188.08 229.359C188.08 222.172 190.393 216.446 195.017 212.181C199.64 207.917 204.995 205.784 211.08 205.784C217.165 205.784 222.52 207.917 227.143 212.181C231.768 216.446 234.08 222.172 234.08 229.359C234.08 234.151 232.176 239.361 228.367 244.991C224.557 250.622 218.795 256.72 211.08 263.284Z"
        fill="#FFE500" />
    <path
        d="M268.58 205.784C270.161 205.784 271.515 205.221 272.642 204.094C273.768 202.969 274.33 201.616 274.33 200.034C274.33 198.453 273.768 197.099 272.642 195.972C271.515 194.847 270.161 194.284 268.58 194.284C266.999 194.284 265.646 194.847 264.521 195.972C263.394 197.099 262.83 198.453 262.83 200.034C262.83 201.616 263.394 202.969 264.521 204.094C265.646 205.221 266.999 205.784 268.58 205.784ZM268.58 234.534C260.865 227.97 255.104 221.872 251.296 216.241C247.485 210.611 245.58 205.401 245.58 200.609C245.58 193.422 247.893 187.696 252.517 183.431C257.14 179.167 262.495 177.034 268.58 177.034C274.665 177.034 280.02 179.167 284.643 183.431C289.268 187.696 291.58 193.422 291.58 200.609C291.58 205.401 289.676 210.611 285.867 216.241C282.057 221.872 276.295 227.97 268.58 234.534Z"
        fill="#FFE500" />
    <path
        d="M502.84 363.023C504.421 363.023 505.775 362.46 506.902 361.333C508.027 360.208 508.59 358.855 508.59 357.273C508.59 355.692 508.027 354.338 506.902 353.211C505.775 352.086 504.421 351.523 502.84 351.523C501.259 351.523 499.905 352.086 498.78 353.211C497.653 354.338 497.09 355.692 497.09 357.273C497.09 358.855 497.653 360.208 498.78 361.333C499.905 362.46 501.259 363.023 502.84 363.023ZM502.84 391.773C495.125 385.209 489.364 379.111 485.555 373.48C481.745 367.851 479.84 362.64 479.84 357.848C479.84 350.661 482.152 344.935 486.777 340.67C491.4 336.406 496.754 334.273 502.84 334.273C508.925 334.273 514.279 336.406 518.902 340.67C523.527 344.935 525.84 350.661 525.84 357.848C525.84 362.64 523.936 367.851 520.127 373.48C516.317 379.111 510.554 385.209 502.84 391.773Z"
        fill="#313A70" />
    <path
        d="M257 216.75C258.581 216.75 259.935 216.186 261.062 215.059C262.187 213.934 262.75 212.581 262.75 211C262.75 209.419 262.187 208.065 261.062 206.938C259.935 205.813 258.581 205.25 257 205.25C255.419 205.25 254.066 205.813 252.941 206.938C251.814 208.065 251.25 209.419 251.25 211C251.25 212.581 251.814 213.934 252.941 215.059C254.066 216.186 255.419 216.75 257 216.75ZM257 245.5C249.285 238.935 243.524 232.838 239.715 227.206C235.905 221.577 234 216.367 234 211.575C234 204.387 236.312 198.661 240.937 194.397C245.56 190.132 250.915 188 257 188C263.085 188 268.44 190.132 273.063 194.397C277.688 198.661 280 204.387 280 211.575C280 216.367 278.096 221.577 274.287 227.206C270.477 232.838 264.715 238.935 257 245.5Z"
        fill="#313A70" />
</svg>
    