<svg width="16" height="10" viewBox="0 0 16 10" fill="none" xmlns="http://www.w3.org/2000/svg">
<path d="M8.10279 7.49543L14.8104 0.726092C14.8755 0.659943 14.9531 0.607673 15.0386 0.572377C15.1241 0.53708 15.2157 0.519476 15.308 0.520607C15.4003 0.521738 15.4915 0.541581 15.5761 0.57896C15.6607 0.61634 15.737 0.670495 15.8005 0.73822C15.9306 0.876745 16.0022 1.06109 15.9999 1.25207C15.9977 1.44306 15.9219 1.62563 15.7885 1.761L8.58484 9.0306C8.5202 9.09637 8.44324 9.14845 8.35845 9.18381C8.27366 9.21916 8.18275 9.23708 8.09103 9.23652C7.99931 9.23595 7.90862 9.21692 7.82427 9.18052C7.73991 9.14412 7.66359 9.0911 7.59975 9.02454L0.204043 1.37291C0.0731536 1.23593 0 1.05295 0 0.86253C0 0.672112 0.0731536 0.489131 0.204043 0.352152C0.268362 0.285221 0.345316 0.232014 0.43035 0.19568C0.515384 0.159346 0.606768 0.140625 0.69909 0.140625C0.791413 0.140625 0.882797 0.159346 0.967831 0.19568C1.05286 0.232014 1.12982 0.285221 1.19414 0.352152L8.10279 7.49543Z" fill="#545454"/>
</svg>
