<svg width="26" height="31" viewBox="0 0 26 31" fill="none" xmlns="http://www.w3.org/2000/svg">
<path d="M21.4163 28.8C19.783 30.3833 17.9996 30.1333 16.283 29.3833C14.4663 28.6167 12.7996 28.5833 10.883 29.3833C8.48295 30.4167 7.21629 30.1167 5.78296 28.8C-2.35038 20.4167 -1.15038 7.65 8.08296 7.18333C10.333 7.3 11.8996 8.41667 13.2163 8.51667C15.183 8.11667 17.0663 6.96667 19.1663 7.11667C21.683 7.31667 23.583 8.31667 24.833 10.1167C19.633 13.2333 20.8663 20.0833 25.633 22C24.683 24.5 23.4496 26.9833 21.3996 28.8167L21.4163 28.8ZM13.0496 7.08333C12.7996 3.36667 15.8163 0.3 19.283 0C19.7663 4.3 15.383 7.5 13.0496 7.08333Z" fill="white"/>
</svg>
