<svg width="27" height="26" viewBox="0 0 27 26" fill="none" xmlns="http://www.w3.org/2000/svg">
    <path fill-rule="evenodd" clip-rule="evenodd" d="M13.4999 21.9749C14.7367 21.9749 15.9613 21.7313 17.1039 21.258C18.2465 20.7848 19.2847 20.0911 20.1592 19.2165C21.0337 18.342 21.7274 17.3039 22.2007 16.1613C22.6739 15.0187 22.9175 13.794 22.9175 12.5573C22.9175 11.3206 22.6739 10.0959 22.2007 8.95333C21.7274 7.81073 21.0337 6.77254 20.1592 5.89803C19.2847 5.02353 18.2465 4.32983 17.1039 3.85655C15.9613 3.38327 14.7367 3.13968 13.4999 3.13968C11.0022 3.13968 8.60681 4.13189 6.84066 5.89803C5.07452 7.66418 4.08231 10.0596 4.08231 12.5573C4.08231 15.055 5.07452 17.4504 6.84066 19.2165C8.60681 20.9827 11.0022 21.9749 13.4999 21.9749ZM13.4999 24.0677C19.8568 24.0677 25.0103 18.9142 25.0103 12.5573C25.0103 6.2004 19.8568 1.04688 13.4999 1.04688C7.14303 1.04688 1.9895 6.2004 1.9895 12.5573C1.9895 18.9142 7.14303 24.0677 13.4999 24.0677Z" fill="white"/>
    <path d="M17.6856 12.5563L11.4072 17.0872V8.02539L17.6856 12.5563Z" fill="white"/>
    </svg>
    