<svg width="25" height="35" viewBox="0 0 25 35" fill="none" xmlns="http://www.w3.org/2000/svg">
    <path d="M15.8781 34.375L2.70833 21.25V17.5H9.5625C11.2924 17.5 12.7856 16.9609 14.0422 15.8828C15.2988 14.8047 16.0576 13.4688 16.3188 11.875H0.75V8.125H15.7313C15.1764 7.03125 14.3523 6.13281 13.2589 5.42969C12.1655 4.72656 10.9333 4.375 9.5625 4.375H0.75V0.625H24.25V4.375H17.8854C18.3424 4.90625 18.7503 5.48438 19.1094 6.10938C19.4684 6.73438 19.7458 7.40625 19.9417 8.125H24.25V11.875H20.2844C20.0233 14.5312 18.8809 16.7578 16.8573 18.5547C14.8337 20.3516 12.4021 21.25 9.5625 21.25H8.14271L21.3125 34.375H15.8781Z" fill="#27AE60"/>
    </svg>
    